<?xml version="1.0" encoding="UTF-8" standalone="no"?>
<svg
   xmlns:dc="http://purl.org/dc/elements/1.1/"
   xmlns:cc="http://creativecommons.org/ns#"
   xmlns:rdf="http://www.w3.org/1999/02/22-rdf-syntax-ns#"
   xmlns:svg="http://www.w3.org/2000/svg"
   xmlns="http://www.w3.org/2000/svg"
   xmlns:xlink="http://www.w3.org/1999/xlink"
   id="svg8"
   version="1.1"
   viewBox="0 0 135.46666 135.46667"
   height="512"
   width="512">
  <defs
     id="defs2">
    <linearGradient
       id="linearGradient925">
      <stop
         id="stop921"
         offset="0"
         style="stop-color:#0013bc;stop-opacity:0.66666669" />
      <stop
         id="stop923"
         offset="1"
         style="stop-color:#7b00ff;stop-opacity:0.72549021" />
    </linearGradient>
    <linearGradient
       id="linearGradient1290">
      <stop
         id="stop1286"
         offset="0"
         style="stop-color:#4f0095;stop-opacity:1" />
      <stop
         id="stop1288"
         offset="1"
         style="stop-color:#001325;stop-opacity:1" />
    </linearGradient>
    <linearGradient
       id="linearGradient1249">
      <stop
         id="stop1245"
         offset="0"
         style="stop-color:#0af1ff;stop-opacity:1" />
      <stop
         style="stop-color:#009ef1;stop-opacity:0"
         offset="0.59722191"
         id="stop1255" />
      <stop
         id="stop1247"
         offset="1"
         style="stop-color:#009add;stop-opacity:0" />
    </linearGradient>
    <linearGradient
       id="linearGradient1219">
      <stop
         id="stop1215"
         offset="0"
         style="stop-color:#96f8ff;stop-opacity:1" />
      <stop
         style="stop-color:#01d3a2;stop-opacity:1"
         offset="0.28473929"
         id="stop1243" />
      <stop
         style="stop-color:#02cadb;stop-opacity:1"
         offset="0.87483287"
         id="stop1221" />
      <stop
         id="stop1217"
         offset="1"
         style="stop-color:#2aff9e;stop-opacity:0" />
    </linearGradient>
    <linearGradient
       id="linearGradient1200">
      <stop
         id="stop1196"
         offset="0"
         style="stop-color:#00d6ff;stop-opacity:0" />
      <stop
         style="stop-color:#16a4ff;stop-opacity:1"
         offset="0.4615466"
         id="stop1223" />
      <stop
         id="stop1198"
         offset="1"
         style="stop-color:#00da7c;stop-opacity:1" />
    </linearGradient>
    <linearGradient
       id="linearGradient1074">
      <stop
         style="stop-color:#2af2ff;stop-opacity:0"
         offset="0"
         id="stop1070" />
      <stop
         id="stop1076"
         offset="0.52833241"
         style="stop-color:#2a2fff;stop-opacity:0" />
      <stop
         style="stop-color:#c62aff;stop-opacity:1"
         offset="1"
         id="stop1072" />
    </linearGradient>
    <linearGradient
       id="linearGradient1042">
      <stop
         id="stop1038"
         offset="0"
         style="stop-color:#2ae8ff;stop-opacity:0" />
      <stop
         id="stop1040"
         offset="1"
         style="stop-color:#b52aff;stop-opacity:1" />
    </linearGradient>
    <linearGradient
       id="linearGradient1028-5">
      <stop
         style="stop-color:#3cddda;stop-opacity:1"
         offset="0"
         id="stop1024" />
      <stop
         style="stop-color:#a638fe;stop-opacity:1"
         offset="1"
         id="stop1026" />
    </linearGradient>
    <linearGradient
       id="linearGradient887">
      <stop
         id="stop883"
         offset="0"
         style="stop-color:#001791;stop-opacity:1" />
      <stop
         id="stop885"
         offset="1"
         style="stop-color:#000000;stop-opacity:1" />
    </linearGradient>
    <radialGradient
       gradientUnits="userSpaceOnUse"
       gradientTransform="matrix(1.0384035,0,0,1.0334353,-83.445671,-68.363685)"
       r="55.297916"
       fy="111.01052"
       fx="153.45833"
       cy="111.01052"
       cx="153.45833"
       id="radialGradient889"
       xlink:href="#linearGradient887" />
    <linearGradient
       gradientTransform="matrix(1.5192312,0,0,1.3697192,62.223176,-114.59522)"
       gradientUnits="userSpaceOnUse"
       y2="116.52119"
       x2="-11.377361"
       y1="116.91048"
       x1="1.0955794"
       id="linearGradient911"
       xlink:href="#linearGradient1028-5" />
    <linearGradient
       gradientTransform="matrix(1.0759584,0,0,1.0759584,59.27736,-76.687452)"
       gradientUnits="userSpaceOnUse"
       y2="98.229576"
       x2="-40.269505"
       y1="100.37307"
       x1="-27.034313"
       id="linearGradient1015"
       xlink:href="#linearGradient1028-5" />
    <radialGradient
       gradientUnits="userSpaceOnUse"
       gradientTransform="matrix(1.438494,-0.76376599,1.0126796,1.9073037,-102.37118,-253.80439)"
       r="47.588844"
       fy="171.49919"
       fx="7.5613122"
       cy="171.49919"
       cx="7.5613122"
       id="radialGradient1017"
       xlink:href="#linearGradient1028-5" />
    <linearGradient
       gradientTransform="matrix(1.0759584,0,0,1.0759584,59.27736,-76.687452)"
       gradientUnits="userSpaceOnUse"
       y2="167.43916"
       x2="3.4314542"
       y1="141.46129"
       x1="0.0089489585"
       id="linearGradient1048"
       xlink:href="#linearGradient1042" />
    <radialGradient
       gradientUnits="userSpaceOnUse"
       gradientTransform="matrix(1.6734048,-2.847075,1.4444224,0.84897784,-121.64889,-99.233287)"
       r="7.3796182"
       fy="134.68515"
       fx="-21.930099"
       cy="134.68515"
       cx="-21.930099"
       id="radialGradient1068"
       xlink:href="#linearGradient1074" />
    <linearGradient
       gradientTransform="matrix(1.0759584,0,0,1.0759584,59.27736,-76.687452)"
       gradientUnits="userSpaceOnUse"
       y2="160.42101"
       x2="63.002884"
       y1="172.13657"
       x1="52.922363"
       id="linearGradient1086"
       xlink:href="#linearGradient925" />
    <linearGradient
       gradientTransform="matrix(1.0759584,0,0,1.0759584,59.27736,-76.687452)"
       gradientUnits="userSpaceOnUse"
       y2="183.05374"
       x2="42.813705"
       y1="188.30093"
       x1="26.723713"
       id="linearGradient1103"
       xlink:href="#linearGradient925" />
    <linearGradient
       gradientTransform="matrix(1.0759584,0,0,1.0759584,59.27736,-76.687452)"
       gradientUnits="userSpaceOnUse"
       y2="74.886864"
       x2="30.480919"
       y1="162.35948"
       x1="49.570847"
       id="linearGradient1204"
       xlink:href="#linearGradient1200" />
    <radialGradient
       gradientUnits="userSpaceOnUse"
       gradientTransform="matrix(-2.3444026,-3.2553593,0.80448607,-0.57936437,114.18477,229.32336)"
       r="25.160269"
       fy="111.5661"
       fx="38.111786"
       cy="111.5661"
       cx="38.111786"
       id="radialGradient1213"
       xlink:href="#linearGradient1219" />
    <radialGradient
       gradientUnits="userSpaceOnUse"
       gradientTransform="matrix(5.7085535,1.0069731,-1.0435895,5.9161346,32.528149,-836.23731)"
       r="12.342818"
       fy="148.55452"
       fx="39.037411"
       cy="148.55452"
       cx="39.037411"
       id="radialGradient1253"
       xlink:href="#linearGradient1249" />
    <radialGradient
       gradientUnits="userSpaceOnUse"
       gradientTransform="matrix(1.0759583,0,0,0.49276619,59.27736,-10.337605)"
       r="5.1654301"
       fy="112.82439"
       fx="7.6956315"
       cy="112.82439"
       cx="7.6956315"
       id="radialGradient1292"
       xlink:href="#linearGradient1290" />
  </defs>
  <metadata
     id="metadata5">
    <rdf:RDF>
      <cc:Work
         rdf:about="">
        <dc:format>image/svg+xml</dc:format>
        <dc:type
           rdf:resource="http://purl.org/dc/dcmitype/StillImage" />
        <dc:title></dc:title>
      </cc:Work>
    </rdf:RDF>
  </metadata>
  <g
     style="display:inline"
     id="layer2">
    <ellipse
       ry="57.14682"
       rx="57.421558"
       cy="71.08548"
       cx="68.213181"
       id="path855"
       style="fill:url(#radialGradient889);fill-opacity:1;stroke:none;stroke-width:10.6515" />
    <path
       id="path1284"
       d="m 75.762842,38.15754 c -0.99787,-0.407434 -1.970237,-1.823342 -1.572819,-2.825242 0.319262,-0.80487 2.051717,-0.03142 2.475735,-0.786417 0.220245,-0.392144 -0.08169,-0.929488 -0.320389,-1.310679 -0.428159,-0.683772 -1.429122,-0.864231 -1.864083,-1.543699 -1.121118,-1.751336 -2.491863,-4.149744 -1.601946,-6.02914 0.251023,-0.530128 1.374459,-0.187511 1.601946,-0.728158 0.27634,-0.656752 -0.368739,-1.394489 -0.728158,-2.009714 -0.871702,-1.49211 -1.813694,-3.199131 -3.378651,-3.932049 -1.169507,-0.547718 -2.74439,-0.684499 -3.873797,-0.05825 -0.525678,0.291484 -0.423936,1.222559 -0.932042,1.543696 -0.494875,0.312774 -1.168173,0.258538 -1.747578,0.174756 -0.560286,-0.08102 -1.00734,-0.614009 -1.57282,-0.640778 -1.144394,-0.05418 -3.037336,-0.126885 -3.291272,0.990294 -0.396049,1.742391 3.027309,2.088288 3.961177,3.611661 0.210502,0.343382 0.284523,0.763886 0.320389,1.165054 0.125001,1.398171 0.08884,2.870566 -0.378642,4.194185 -0.913782,2.587261 -2.418396,5.145459 -4.572829,6.844679 -0.902038,0.711443 -2.086427,1.122363 -3.233018,1.194173 -1.880343,0.117763 -3.637302,-1.530035 -5.504871,-1.281553 -1.829682,0.243436 -3.565628,1.323353 -4.877294,2.622024 -5.288992,5.236582 -10.551054,12.120683 -10.768059,19.560311 -0.210217,7.206984 3.76138,14.919292 9.309122,19.524437 4.853557,4.028904 12.016067,4.194979 18.288718,4.860512 5.085093,0.53954 10.59642,-2.693069 15.32298,-0.741431 1.167846,0.482211 1.38999,2.309178 2.553831,2.800978 1.189464,0.502623 2.718532,0.457045 3.871935,-0.123574 1.204748,-0.606475 2.263559,-1.846109 2.51264,-3.1717 0.103464,-0.550622 -0.0039,-1.335555 -0.494289,-1.606438 -0.647227,-0.357498 -1.496934,0.938193 -2.141923,0.57667 -0.636707,-0.356884 -0.826453,-1.401274 -0.617862,-2.100733 0.242166,-0.812047 1.908095,-0.800696 1.935968,-1.647625 0.02204,-0.669613 -0.837399,-1.111153 -1.441678,-1.400489 -0.711187,-0.34052 -1.802124,0.280783 -2.347876,-0.288336 -0.829451,-0.864963 -0.648061,-2.440467 -0.288336,-3.583597 0.336677,-1.069879 1.854747,-1.510808 2.141922,-2.595029 0.164138,-0.619698 0.0626,-1.38762 -0.329526,-1.894774 -1.826631,-2.362449 -6.820399,-1.036116 -8.15578,-3.707171 -1.169424,-2.339102 -0.17836,-5.83049 1.688823,-7.661491 0.799794,-0.784297 2.196579,-0.877412 3.295265,-0.659057 2.106566,0.418677 3.208973,3.674829 5.354804,3.583609 0.790538,-0.03357 1.693151,-0.708057 1.853586,-1.482876 0.362409,-1.750227 -2.808843,-2.974292 -2.512639,-4.736939 0.136846,-0.814339 1.001403,-1.533358 1.812396,-1.688824 1.635215,-0.313469 3.262848,0.898436 4.654562,1.812399 0.754005,0.495166 1.323106,1.23308 1.903108,1.923953 0.841787,1.002707 1.121704,2.578438 2.27185,3.203891 5.585423,3.037356 15.403628,6.00727 19.056658,0.803635 2.83037,-4.031789 -1.0864,-11.706579 -5.60196,-13.675357 -3.1465,-1.371878 -6.23801,4.091957 -9.638641,3.624797 -4.048343,-0.556141 -8.74657,-3.325228 -9.885792,-7.249582 -0.378161,-1.302673 2.065603,-2.564654 1.482867,-3.789557 -0.928982,-1.952703 -4.016334,-1.953188 -6.17862,-1.97716 -2.717081,-0.03012 -5.30146,3.33885 -7.817092,2.311707 z"
       style="opacity:0.999;mix-blend-mode:screen;fill:#0070ff;fill-opacity:0.29718876;stroke:none;stroke-width:0.28468px;stroke-linecap:butt;stroke-linejoin:miter;stroke-opacity:1" />
  </g>
  <g
     style="display:inline"
     id="layer3">
    <path
       id="path893"
       d="m 53.998242,58.683877 c 2.92068,-3.09097 8.587625,-6.740331 12.612749,-8.488569 0.8818,-0.667805 1.898454,-1.576139 1.865266,-2.57861 0.181148,-0.571936 0.900266,-1.050684 0.941515,-1.569586 0.045,-0.566202 0.02689,-0.628736 0.003,-0.932674 -0.02445,-0.31165 -0.280298,-0.581372 -0.543342,-0.784771 -0.370121,-0.286216 -0.738737,-0.442413 -1.313489,-0.504926 -1.011995,-0.110125 -3.158938,0.0053 -4.736823,-0.08393 -1.351655,-0.07714 -2.71243,-0.175522 -4.032525,-0.44845 -0.85967,-0.177737 -1.712087,-0.420161 -2.504787,-0.768783 -0.349839,-0.153861 -0.705198,-0.325422 -0.977043,-0.576584 -2.321254,-2.144718 -6.911225,-6.23959 -8.971039,-7.511599 -1.618625,-0.999544 -1.432994,3.161101 -1.669856,4.916979 -0.252588,1.872479 -0.01231,3.784254 0.266466,5.653709 0.378715,2.540156 1.075991,5.042845 1.900795,7.495578 0.463302,1.377755 0.741691,2.888141 1.705385,4.036072 1.108561,1.32049 2.588037,3.031092 4.423344,2.962995 0.456944,-0.017 0.733759,-0.502936 1.030337,-0.816803 z"
       style="display:inline;fill:url(#linearGradient911);fill-opacity:1;stroke:none;stroke-width:0.144254;stroke-linecap:butt;stroke-linejoin:miter;stroke-miterlimit:4;stroke-dasharray:none;stroke-opacity:0.453815" />
    <path
       style="display:inline;fill:url(#radialGradient1292);fill-opacity:1;stroke:none;stroke-width:0.144254;stroke-linecap:butt;stroke-linejoin:miter;stroke-miterlimit:4;stroke-dasharray:none;stroke-opacity:0.453815"
       d="m 68.476257,47.616698 c 0.181148,-0.571936 0.900266,-1.050684 0.941515,-1.569586 0.045,-0.566202 0.02689,-0.628736 0.003,-0.932674 -0.02445,-0.31165 -0.280298,-0.581372 -0.543342,-0.784771 -0.370121,-0.286216 -0.738737,-0.442413 -1.313489,-0.504926 -1.011995,-0.110125 -3.158938,0.0053 -4.736823,-0.08393 -1.351655,-0.07714 -3.177199,-0.288766 -4.497297,-0.561704 3.028971,1.454458 4.531019,2.585344 6.306143,4.181927 0.528807,0.859088 2.589947,0.488646 3.84024,0.255691 z"
       id="path924" />
  </g>
  <g
     id="layer6">
    <path
       id="path1007"
       d="m 30.189564,31.309796 c -3.210387,-2.66814 -3.036537,-4.260873 -4.928264,-8.561341 -0.259999,0.872008 -0.69002,1.230193 -0.909427,1.717155 -0.791945,-1.595471 -1.137452,-4.833589 -1.358772,-6.793864 -3.288701,2.862877 -11.38787,15.634824 -8.051984,22.293931 4.468177,3.767672 13.814072,-2.98997 15.248447,-8.655881 z"
       style="fill:url(#linearGradient1015);fill-opacity:1;stroke:none;stroke-width:0.28468px;stroke-linecap:butt;stroke-linejoin:miter;stroke-opacity:1" />
  </g>
  <g
     style="display:inline"
     id="layer5">
    <path
       id="path996"
       d="m 56.283027,65.077802 c -0.814358,-4.928695 -4.118202,-8.920039 -5.359603,-13.663207 -0.668639,-6.212498 -0.06897,-10.345039 1.937508,-15.651042 2.043256,-3.972158 3.43976,-3.832015 6.97,-6.366103 l -1.409098,-0.603898 4.025993,-2.465923 c -2.685088,-1.298944 -5.736277,-0.652275 -8.253286,-0.100645 -3.780979,0.828642 -6.786862,3.02064 -9.788192,5.284112 C 37.54935,29.151202 32.439502,29.879627 29.184593,30.273822 24.823586,31.018039 18.387325,34.907811 14.110757,38.959182 7.407523,47.316485 3.681789,56.682993 1.4540431,63.744195 c 1.7120756,-2.053133 2.6064467,-2.989851 3.4472554,-3.59823 -3.2181731,5.083461 -1.785851,10.406938 -3.8750167,16.481412 2.1650111,-3.084859 2.6470029,-3.678336 3.5227415,-3.799532 -0.2130989,1.34625 0.2767892,5.560896 0.2767892,5.560896 0,0 1.2312267,20.609166 22.3343015,38.438889 20.56444,17.37463 52.569316,20.27468 73.790776,8.79583 1.47356,-1.31813 2.73384,-2.21414 4.39223,-5.3527 0.43364,-0.20432 10.81012,-5.40591 14.03869,-8.17883 3.28404,-2.82058 9.18174,-11.03411 7.68403,-16.173061 1.83923,-3.139679 6.14885,-11.295519 7.02691,-15.195706 1.30131,-5.780232 1.73969,-14.443924 0.63461,-19.935325 -0.86836,1.385921 -1.3347,2.192546 -2.02609,2.745028 -0.74774,-11.225312 -11.80065,-32.195795 -16.89231,-36.992889 -1.98942,-1.478792 -4.14299,-4.406488 -6.1654,-10.454155 -2.65497,3.48981 -1.71118,3.559075 -2.55509,5.768859 C 101.90385,17.085623 92.645297,11.135811 92.073557,3.8877002 85.126195,10.147937 80.290786,23.756811 81.362352,30.729805 c 1.911265,12.437149 7.878331,17.621407 15.307686,24.51391 3.166035,2.99407 7.793562,18.021302 3.675332,26.69712 -9.362818,23.131085 -41.253467,23.747955 -52.376866,8.05724 8.743939,1.664152 15.167244,2.44646 24.07505,-3.182847 0.800999,-0.278372 2.751322,-1.260969 4.195061,-1.340116 1.378825,-0.07564 3.460332,1.237717 4.498669,-0.811198 1.125491,-2.220885 -1.646642,-4.02558 -2.445129,-4.73299 -1.670128,-1.479626 -4.801371,-2.278019 -6.97176,-2.451561 -3.942305,-0.315223 -7.985165,1.199802 -10.426828,1.738857 -7.200526,0.877551 -11.232135,-2.167905 -15.4983,-6.7763 -1.579327,-1.706018 -2.30655,-6.969553 1.415541,-9.268434 2.885276,-0.632019 3.904879,1.261421 6.055108,3.102062 -0.788872,-2.061019 -0.966071,-2.112342 -2.017975,-3.739116 2.714005,-0.01366 2.84466,0.407347 5.435091,2.541403 z"
       style="opacity:0.994;fill:url(#radialGradient1017);fill-opacity:1;stroke:none;stroke-width:0.823108;stroke-linecap:butt;stroke-linejoin:miter;stroke-miterlimit:4;stroke-dasharray:none;stroke-opacity:1" />
  </g>
  <g
     style="display:inline"
     id="layer7">
    <path
       style="display:inline;opacity:0.997;fill:url(#linearGradient1048);fill-opacity:1;stroke:none;stroke-width:0.28468px;stroke-linecap:butt;stroke-linejoin:miter;stroke-opacity:1"
       d="m 47.968504,89.998075 c 8.743939,1.664152 15.167244,2.44646 24.07505,-3.182847 0.800999,-0.278372 2.751322,-1.260969 4.195061,-1.340116 1.378825,-0.07564 3.460332,1.237717 4.498669,-0.811198 1.125491,-2.220885 -1.646642,-4.02558 -2.445129,-4.73299 -1.670128,-1.479626 -4.801371,-2.278019 -6.97176,-2.451561 -3.942305,-0.315223 -7.985165,1.199802 -10.426828,1.738857 -7.200526,0.877551 -11.232135,-2.167905 -15.4983,-6.7763 -15.508278,0.973043 -13.018402,11.757213 2.573237,17.556155 z"
       id="path1031" />
    <path
       id="path1050"
       d="m 48.556064,63.101465 c -5.342855,-1.21975 -11.076258,0.929497 -14.915962,4.414066 -2.939495,2.667621 -3.739737,7.936998 -4.468101,11.038459 9.121425,-2.557123 11.873658,-5.949263 14.893416,-11.179346 0.568223,-1.216747 1.291666,-4.825012 4.490647,-4.273179 z"
       style="opacity:0.999;fill:url(#radialGradient1068);fill-opacity:1;stroke:none;stroke-width:0.28468px;stroke-linecap:butt;stroke-linejoin:miter;stroke-opacity:1" />
    <path
       id="path1078"
       d="m 127.06584,95.918869 c 0.35582,1.416047 0.23719,1.784175 0.16027,2.97227 -2.06669,3.715711 -4.10901,6.863671 -11.00649,9.633181 5.13495,-4.82973 7.82145,-8.30922 10.84622,-12.605451 z"
       style="fill:url(#linearGradient1086);fill-opacity:1;stroke:none;stroke-width:0.28468px;stroke-linecap:butt;stroke-linejoin:miter;stroke-opacity:1" />
    <path
       style="fill:url(#linearGradient1103);fill-opacity:1.0;stroke:none;stroke-width:0.28468px;stroke-linecap:butt;stroke-linejoin:miter;stroke-opacity:1"
       d="m 105.34312,120.27076 c -0.40051,0.72666 -0.84183,1.52397 -1.28877,2.11564 -2.44327,2.00358 -7.779109,4.00596 -16.02339,3.53012 7.380628,-1.92087 12.54352,-3.43965 17.31216,-5.64576 z"
       id="path1093" />
    <path
       style="display:inline;opacity:0.994;fill:url(#radialGradient1213);fill-opacity:1;stroke:none;stroke-width:0.28468px;stroke-linecap:butt;stroke-linejoin:miter;stroke-opacity:1"
       d="m 127.06584,95.918869 c 1.83923,-3.139679 6.14885,-11.295519 7.02691,-15.195706 1.30131,-5.780232 1.73969,-14.443924 0.63461,-19.935325 -0.86836,1.385921 -1.3347,2.192546 -2.02609,2.745028 -0.74774,-11.225312 -11.80065,-32.195795 -16.89231,-36.992889 -1.98942,-1.478792 -4.14299,-4.406488 -6.1654,-10.454155 -2.65497,3.48981 -1.71118,3.559075 -2.55509,5.768859 C 101.90385,17.085623 92.645297,11.135811 92.073557,3.8877002 85.126195,10.147937 80.290786,23.756811 81.362352,30.729805 c 1.911265,12.437149 7.878331,17.621407 15.307686,24.51391 3.166035,2.99407 7.793562,18.021302 3.675332,26.69712 -9.07718,-4.31809 29.01205,23.765255 26.72047,13.978034 z"
       id="path1206" />
    <path
       style="display:inline;opacity:0.994;fill:url(#linearGradient1204);fill-opacity:1;stroke:none;stroke-width:0.28468px;stroke-linecap:butt;stroke-linejoin:miter;stroke-opacity:1"
       d="M 124.59528,91.216845 C 126.75086,75.585838 119.60895,66.270654 113.73381,60.265364 102.50182,53.228574 88.098659,38.561928 85.223477,26.137513 85.262986,16.648874 89.771291,9.7269843 92.073557,3.8877002 85.126195,10.147937 80.290786,23.756811 81.362352,30.729805 c 1.911265,12.437149 7.878331,17.621407 15.307686,24.51391 6.211302,4.454532 12.459032,11.016092 15.386282,15.623454 1.44477,6.190119 10.99227,16.362841 -0.81582,32.124021 -4.45767,5.95001 -4.78852,11.44425 4.97912,5.53313 6.40894,-5.51644 8.64299,-13.645676 8.37566,-17.307475 z"
       id="path1165" />
    <path
       id="path1225"
       d="m 97.402627,55.581835 c 5.488813,4.323772 10.671163,9.211667 14.653673,15.285334 6.33686,11.760881 5.78514,22.142836 3.28845,26.638276 -3.66729,6.603225 -18.403143,18.398075 -24.05061,18.601905 -28.715252,1.03637 -30.830576,-15.55904 -21.005868,-15.40539 11.692849,0.18287 18.279914,-4.595379 21.570822,-7.025625 C 97.906045,88.4686 102.09996,80.673712 101.96535,74.312688 101.72541,66.610947 100.08156,60.562952 97.402627,55.581835 Z"
       style="fill:url(#radialGradient1253);fill-opacity:1;stroke:none;stroke-width:0.28468px;stroke-linecap:butt;stroke-linejoin:miter;stroke-opacity:1" />
  </g>
</svg>
